<svg xmlns="http://www.w3.org/2000/svg" viewBox="0 0 800 350" role="img"><title>ระบบกล่องสองใบและแรงแนวนอนของแต่ละใบ</title><defs><marker id="a" viewBox="0 0 10 10" refX="9" refY="5" markerWidth="6" markerHeight="6" orient="auto-start-reverse"><path d="M0 0 L10 5 L0 10z" fill="context-stroke"/></marker></defs><style>text{font-family:Cambria,Georgia,serif;font-size:24px;fill:#18354d}.box{fill:#dfedf7;stroke:#18354d;stroke-width:2}.line{stroke:#8095a4;stroke-width:2;fill:none}</style><path class="line" d="M45 145 H750"/><rect class="box" x="150" y="60" width="130" height="85"/><rect class="box" x="430" y="60" width="155" height="85"/><path class="line" d="M280 104 H430"/><text x="185" y="112">m₁</text><text x="490" y="112">m₂</text><path d="M585 104 L740 104" stroke="#c37312" stroke-width="4" fill="none" marker-end="url(#a)"/><text x="680" y="80">F</text><rect class="box" x="160" y="225" width="85" height="65"/><rect class="box" x="495" y="225" width="85" height="65"/><text x="180" y="267">m₁</text><text x="515" y="267">m₂</text><path d="M245 255 L350 255" stroke="#156b91" stroke-width="4" fill="none" marker-end="url(#a)"/><text x="292" y="232">T</text><path d="M495 255 L395 255" stroke="#156b91" stroke-width="4" fill="none" marker-end="url(#a)"/><text x="426" y="232">T</text><path d="M580 255 L725 255" stroke="#c37312" stroke-width="4" fill="none" marker-end="url(#a)"/><text x="670" y="230">F</text></svg>